<svg xmlns="http://www.w3.org/2000/svg" viewBox="0 0 500 500" width="100%" height="100%">
    <rect width="500" height="500" fill="#fbfbfc"/>
    <text x="250" y="140" font-family="-apple-system, BlinkMacSystemFont, 'Segoe UI', Roboto, Helvetica, Arial, sans-serif" font-size="32" font-weight="700" fill="#9ca3af" text-anchor="middle">Ürün görseli</text>
    <text x="250" y="185" font-family="-apple-system, BlinkMacSystemFont, 'Segoe UI', Roboto, Helvetica, Arial, sans-serif" font-size="32" font-weight="700" fill="#9ca3af" text-anchor="middle">hazırlanıyor</text>
    <g transform="translate(130, 220) scale(10)">
        <path fill="#d1d5db" d="M20 7h-3.17L15 5H9L7.17 7H4c-1.1 0-2 .9-2 2v12c0 1.1.9 2 2 2h16c1.1 0 2-.9 2-2V9c0-1.1-.9-2-2-2zm0 14H4V9h4.05l1.83-2h4.24l1.83 2H20v12z"/>
        <circle fill="#d1d5db" cx="12" cy="15" r="4"/>
    </g>
</svg>
